Coordinates
version=1
nRows=14
nColumns=24
inDegrees=yes

Units are S.I. units (second, meters, Newtons, ...)
Angles are in degrees.

endheader
time	pelvis_tilt	pelvis_list	pelvis_rotation	pelvis_tx	pelvis_ty	pelvis_tz	hip_flexion_r	hip_adduction_r	hip_rotation_r	knee_angle_r	ankle_angle_r	subtalar_angle_r	mtp_angle_r	hip_flexion_l	hip_adduction_l	hip_rotation_l	knee_angle_l	ankle_angle_l	subtalar_angle_l	mtp_angle_l	lumbar_extension	lumbar_bending	lumbar_rotation
      1.20883333	      0.06255589	      3.47020054	      0.57653427	      0.16407991	      1.03362339	      0.29914644	     16.22534503	     -5.94479600	     -7.86403343	    -64.07265161	      0.45202099	     -7.14753715	      4.46193056	      7.27810964	      7.88159153	      3.22999143	     -9.25040419	      3.85133247	     -9.79718096	      0.82997079	     -5.79775999	     -6.20602293	      0.00133510
      1.21300000	      0.01953474	      3.31469416	      0.50020568	      0.16912086	      1.03439244	      0.29888277	     16.78823970	     -5.72510182	     -7.74537500	    -63.67428884	      0.73232501	     -7.47990718	      4.41826314	      6.86088632	      7.70966203	      3.17717022	     -8.94996815	      3.97784307	     -9.66029806	      0.82543471	     -5.78315530	     -5.97629447	     -0.07979187
      1.21716667	      0.00301385	      3.17074448	      0.41718785	      0.17418635	      1.03517263	      0.29863441	     17.30359232	     -5.51617829	     -7.62798224	    -63.21903351	      1.02000401	     -7.75452079	      4.38434172	      6.40048500	      7.55177934	      3.13555692	     -8.61939505	      4.06926205	     -9.59861652	      0.82059607	     -5.76348853	     -5.79755446	     -0.11905765
      1.22133333	     -0.00872691	      2.99989858	      0.34167258	      0.17921039	      1.03594976	      0.29838887	     17.79326718	     -5.27005547	     -7.52051542	    -62.68471802	      1.18600381	     -8.08855437	      4.29932911	      5.93552534	      7.36781290	      3.13961549	     -8.28543003	      4.14832692	     -9.54520732	      0.80646085	     -5.78985906	     -5.56134216	     -0.14971164
      1.22550000	     -0.02401785	      2.83413412	      0.27173921	      0.18423943	      1.03668691	      0.29812397	     18.26802423	     -5.03132375	     -7.42141704	    -62.10234799	      1.40966027	     -8.34691703	      4.21645864	      5.47699311	      7.19301728	      3.14706481	     -7.95742107	      4.21352886	     -9.52687614	      0.79028762	     -5.80069773	     -5.33964119	     -0.18372586
      1.22966667	     -0.02802768	      2.67253280	      0.21367451	      0.18927431	      1.03740422	      0.29784129	     18.70804396	     -4.80272290	     -7.34408235	    -61.45895756	      1.59508731	     -8.60838200	      4.09275585	      5.00339696	      7.02597847	      3.16996909	     -7.62279166	      4.27460500	     -9.54256320	      0.76365184	     -5.80931291	     -5.11759295	     -0.22857446
      1.23383333	     -0.05901506	      2.50644931	      0.15819509	      0.19429432	      1.03803803	      0.29756674	     19.16219411	     -4.56538708	     -7.26666398	    -60.77233752	      1.85945280	     -8.77621334	      4.04361387	      4.57636621	      6.85355643	      3.16607566	     -7.32312994	      4.33943098	     -9.53707889	      0.75199420	     -5.79196679	     -4.88149087	     -0.26249331
      1.23800000	     -0.03532028	      2.31864871	      0.12397187	      0.19929591	      1.03874770	      0.29727967	     19.52196493	     -4.30260598	     -7.21289049	    -59.99076002	      1.95992602	     -9.02639055	      3.89706359	      4.07667427	      6.66223654	      3.25449299	     -6.99348553	      4.39384086	     -9.58028932	      0.71722222	     -5.86558752	     -4.63632291	     -0.33224724
      1.24216667	     -0.07341219	      2.16526662	      0.08367815	      0.20428828	      1.03927257	      0.29698726	     19.94980545	     -4.08245846	     -7.15095339	    -59.20711618	      2.21085353	     -9.14101623	      3.84601659	      3.66882677	      6.50801914	      3.26130250	     -6.71109094	      4.45899078	     -9.58489049	      0.70382899	     -5.84249747	     -4.40894368	     -0.37105663
      1.24633333	     -0.04100199	      1.97888808	      0.07161900	      0.20926024	      1.03991135	      0.29669033	     20.25645159	     -3.82064175	     -7.11486569	    -58.31226157	      2.31330724	     -9.38760283	      3.58540083	      3.17147512	      6.32290125	      3.39120582	     -6.40027591	      4.47246521	     -9.72598666	      0.63298563	     -5.94046812	     -4.18118099	     -0.49563614
      1.25050000	     -0.05239517	      1.78600941	      0.07621641	      0.21423221	      1.04043287	      0.29635015	     20.59257073	     -3.56699873	     -7.10797045	    -57.37800356	      2.46322054	     -9.45139254	      3.47830895	      2.75094052	      6.12963822	      3.45834742	     -6.15005812	      4.55560412	     -9.74568854	      0.60393219	     -5.95721608	     -3.91754509	     -0.53724098
      1.25466667	     -0.03635471	      1.61516225	      0.07948914	      0.21920764	      1.04094045	      0.29602879	     20.88099188	     -3.33267641	     -7.09523688	    -56.39074739	      2.54739124	     -9.62288132	      3.29646339	      2.28287380	      5.96253564	      3.57733776	     -5.86018813	      4.61729028	     -9.82277701	      0.55353000	     -6.01663013	     -3.68102635	     -0.64801202
      1.25883333	     -0.04514924	      1.44839347	      0.10125597	      0.22415769	      1.04136108	      0.29568871	     21.17619455	     -3.10646388	     -7.09494392	    -55.35519914	      2.65810207	     -9.75893109	      3.06725955	      1.86091580	      5.80090996	      3.70473144	     -5.60532352	      4.66499972	     -9.93055992	      0.48725210	     -6.05114061	     -3.45068281	     -0.76617138
      1.26300000	     -0.08860549	      1.29742076	      0.11537770	      0.22911582	      1.04165577	      0.29534273	     21.50087560	     -2.90268979	     -7.09521942	    -54.29739454	      2.84136588	     -9.79427765	      3.00921146	      1.49216625	      5.65504289	      3.75044398	     -5.37971900	      4.75336699	     -9.93741303	      0.47153585	     -6.02172953	     -3.22476161	     -0.80646036
